# MagicaVoxel @ Ephtracy

# material
mtllib speeddown.mtl
usemtl palette

# normals
vn -1 0 0
vn 1 0 0
vn 0 0 1
vn 0 0 -1
vn 0 -1 0
vn 0 1 0

# texcoords
vt 0.0449219 0.5
vt 0.0488281 0.5
vt 0.0683594 0.5
vt 0.119141 0.5
vt 0.123047 0.5
vt 0.158203 0.5
vt 0.162109 0.5
vt 0.166016 0.5
vt 0.169922 0.5
vt 0.197266 0.5
vt 0.205078 0.5
vt 0.236328 0.5

# verts
v -10 0 0.5
v -10 0 -0.5
v -10 20 0.5
v -10 20 -0.5
v 10 0 0.5
v 10 0 -0.5
v 10 20 0.5
v 10 20 -0.5
v -10 0 0.5
v -10 20 0.5
v -9 1 0.5
v -9 4 0.5
v -9 9 0.5
v -9 19 0.5
v -8 3 0.5
v -8 4 0.5
v -8 5 0.5
v -8 9 0.5
v -8 10 0.5
v -7 2 0.5
v -7 3 0.5
v -7 4 0.5
v -7 5 0.5
v -7 6 0.5
v -7 9 0.5
v -7 10 0.5
v -7 11 0.5
v -6 1 0.5
v -6 2 0.5
v -6 3 0.5
v -6 4 0.5
v -6 5 0.5
v -6 6 0.5
v -6 7 0.5
v -6 8 0.5
v -6 9 0.5
v -6 10 0.5
v -5 3 0.5
v -5 5 0.5
v -5 8 0.5
v -5 9 0.5
v -5 10 0.5
v -5 11 0.5
v -5 12 0.5
v -4 1 0.5
v -4 2 0.5
v -4 3 0.5
v -4 5 0.5
v -4 6 0.5
v -4 7 0.5
v -4 8 0.5
v -4 9 0.5
v -3 2 0.5
v -3 3 0.5
v -3 5 0.5
v -3 6 0.5
v -3 7 0.5
v -3 8 0.5
v -3 9 0.5
v -2 3 0.5
v -2 4 0.5
v -2 5 0.5
v -2 7 0.5
v -2 8 0.5
v -2 9 0.5
v -1 7 0.5
v -1 8 0.5
v -1 9 0.5
v -1 10 0.5
v -1 11 0.5
v -1 12 0.5
v -1 13 0.5
v -1 14 0.5
v -1 15 0.5
v -1 16 0.5
v -1 17 0.5
v 0 7 0.5
v 0 8 0.5
v 0 9 0.5
v 0 10 0.5
v 0 11 0.5
v 0 12 0.5
v 0 13 0.5
v 0 14 0.5
v 0 15 0.5
v 0 16 0.5
v 0 17 0.5
v 0 19 0.5
v 1 3 0.5
v 1 4 0.5
v 1 5 0.5
v 1 7 0.5
v 1 8 0.5
v 1 9 0.5
v 1 10 0.5
v 1 11 0.5
v 1 12 0.5
v 1 13 0.5
v 1 14 0.5
v 1 15 0.5
v 1 16 0.5
v 1 17 0.5
v 1 18 0.5
v 2 2 0.5
v 2 3 0.5
v 2 4 0.5
v 2 5 0.5
v 2 6 0.5
v 2 8 0.5
v 2 9 0.5
v 2 10 0.5
v 2 11 0.5
v 2 12 0.5
v 2 13 0.5
v 2 14 0.5
v 2 15 0.5
v 2 16 0.5
v 2 17 0.5
v 2 18 0.5
v 3 1 0.5
v 3 2 0.5
v 3 3 0.5
v 3 4 0.5
v 3 5 0.5
v 3 6 0.5
v 3 7 0.5
v 3 9 0.5
v 3 10 0.5
v 3 11 0.5
v 3 14 0.5
v 3 15 0.5
v 3 16 0.5
v 3 17 0.5
v 3 18 0.5
v 4 3 0.5
v 4 5 0.5
v 4 14 0.5
v 4 15 0.5
v 4 16 0.5
v 4 17 0.5
v 5 1 0.5
v 5 2 0.5
v 5 3 0.5
v 5 5 0.5
v 5 6 0.5
v 5 7 0.5
v 5 10 0.5
v 5 18 0.5
v 6 2 0.5
v 6 3 0.5
v 6 5 0.5
v 6 6 0.5
v 6 8 0.5
v 6 9 0.5
v 6 10 0.5
v 7 3 0.5
v 7 4 0.5
v 7 5 0.5
v 7 8 0.5
v 7 9 0.5
v 7 10 0.5
v 7 18 0.5
v 8 3 0.5
v 8 4 0.5
v 8 10 0.5
v 8 19 0.5
v 9 1 0.5
v 9 4 0.5
v 9 10 0.5
v 9 19 0.5
v 10 0 0.5
v 10 20 0.5
v -10 0 -0.5
v -10 20 -0.5
v -9 1 -0.5
v -9 4 -0.5
v -9 9 -0.5
v -9 19 -0.5
v -8 3 -0.5
v -8 4 -0.5
v -8 5 -0.5
v -8 9 -0.5
v -8 10 -0.5
v -7 2 -0.5
v -7 3 -0.5
v -7 4 -0.5
v -7 5 -0.5
v -7 6 -0.5
v -7 9 -0.5
v -7 10 -0.5
v -7 11 -0.5
v -6 1 -0.5
v -6 2 -0.5
v -6 3 -0.5
v -6 4 -0.5
v -6 5 -0.5
v -6 6 -0.5
v -6 7 -0.5
v -6 8 -0.5
v -6 9 -0.5
v -6 10 -0.5
v -5 3 -0.5
v -5 5 -0.5
v -5 8 -0.5
v -5 9 -0.5
v -5 10 -0.5
v -5 11 -0.5
v -5 12 -0.5
v -4 1 -0.5
v -4 2 -0.5
v -4 3 -0.5
v -4 5 -0.5
v -4 6 -0.5
v -4 7 -0.5
v -4 8 -0.5
v -4 9 -0.5
v -3 2 -0.5
v -3 3 -0.5
v -3 5 -0.5
v -3 6 -0.5
v -3 7 -0.5
v -3 8 -0.5
v -3 9 -0.5
v -2 3 -0.5
v -2 4 -0.5
v -2 5 -0.5
v -2 7 -0.5
v -2 8 -0.5
v -2 9 -0.5
v -1 7 -0.5
v -1 8 -0.5
v -1 9 -0.5
v -1 10 -0.5
v -1 11 -0.5
v -1 12 -0.5
v -1 13 -0.5
v -1 14 -0.5
v -1 15 -0.5
v -1 16 -0.5
v -1 17 -0.5
v 0 7 -0.5
v 0 8 -0.5
v 0 9 -0.5
v 0 10 -0.5
v 0 11 -0.5
v 0 12 -0.5
v 0 13 -0.5
v 0 14 -0.5
v 0 15 -0.5
v 0 16 -0.5
v 0 17 -0.5
v 0 19 -0.5
v 1 3 -0.5
v 1 4 -0.5
v 1 5 -0.5
v 1 7 -0.5
v 1 8 -0.5
v 1 9 -0.5
v 1 10 -0.5
v 1 11 -0.5
v 1 12 -0.5
v 1 13 -0.5
v 1 14 -0.5
v 1 15 -0.5
v 1 16 -0.5
v 1 17 -0.5
v 1 18 -0.5
v 2 2 -0.5
v 2 3 -0.5
v 2 4 -0.5
v 2 5 -0.5
v 2 6 -0.5
v 2 8 -0.5
v 2 9 -0.5
v 2 10 -0.5
v 2 11 -0.5
v 2 12 -0.5
v 2 13 -0.5
v 2 14 -0.5
v 2 15 -0.5
v 2 16 -0.5
v 2 17 -0.5
v 2 18 -0.5
v 3 1 -0.5
v 3 2 -0.5
v 3 3 -0.5
v 3 4 -0.5
v 3 5 -0.5
v 3 6 -0.5
v 3 7 -0.5
v 3 9 -0.5
v 3 10 -0.5
v 3 11 -0.5
v 3 14 -0.5
v 3 15 -0.5
v 3 16 -0.5
v 3 17 -0.5
v 3 18 -0.5
v 4 3 -0.5
v 4 5 -0.5
v 4 14 -0.5
v 4 15 -0.5
v 4 16 -0.5
v 4 17 -0.5
v 5 1 -0.5
v 5 2 -0.5
v 5 3 -0.5
v 5 5 -0.5
v 5 6 -0.5
v 5 7 -0.5
v 5 10 -0.5
v 5 18 -0.5
v 6 2 -0.5
v 6 3 -0.5
v 6 5 -0.5
v 6 6 -0.5
v 6 8 -0.5
v 6 9 -0.5
v 6 10 -0.5
v 7 3 -0.5
v 7 4 -0.5
v 7 5 -0.5
v 7 8 -0.5
v 7 9 -0.5
v 7 10 -0.5
v 7 18 -0.5
v 8 3 -0.5
v 8 4 -0.5
v 8 10 -0.5
v 8 19 -0.5
v 9 1 -0.5
v 9 4 -0.5
v 9 10 -0.5
v 9 19 -0.5
v 10 0 -0.5
v 10 20 -0.5
v -10 0 0.5
v 10 0 0.5
v -10 0 -0.5
v 10 0 -0.5
v -10 20 0.5
v 10 20 0.5
v -10 20 -0.5
v 10 20 -0.5

# faces
f 3/12/1 2/12/1 1/12/1
f 4/12/1 2/12/1 3/12/1
f 5/12/2 6/12/2 7/12/2
f 7/12/2 6/12/2 8/12/2
f 11/12/3 10/12/3 9/12/3
f 12/12/3 10/12/3 11/12/3
f 13/12/3 10/12/3 12/12/3
f 14/12/3 10/12/3 13/12/3
f 15/10/3 12/10/3 11/10/3
f 16/11/3 13/11/3 12/11/3
f 16/10/3 12/10/3 15/10/3
f 17/11/3 13/11/3 16/11/3
f 18/10/3 14/10/3 13/10/3
f 18/11/3 13/11/3 17/11/3
f 19/10/3 14/10/3 18/10/3
f 20/10/3 15/10/3 11/10/3
f 21/3/3 17/3/3 16/3/3
f 21/10/3 15/10/3 20/10/3
f 21/3/3 16/3/3 15/3/3
f 22/3/3 17/3/3 21/3/3
f 23/6/3 18/6/3 17/6/3
f 23/3/3 17/3/3 22/3/3
f 24/6/3 18/6/3 23/6/3
f 25/11/3 19/11/3 18/11/3
f 25/6/3 18/6/3 24/6/3
f 26/10/3 14/10/3 19/10/3
f 26/11/3 19/11/3 25/11/3
f 27/10/3 14/10/3 26/10/3
f 28/12/3 11/12/3 9/12/3
f 28/10/3 20/10/3 11/10/3
f 29/3/3 21/3/3 20/3/3
f 29/10/3 20/10/3 28/10/3
f 30/4/3 22/4/3 21/4/3
f 30/3/3 21/3/3 29/3/3
f 31/5/3 23/5/3 22/5/3
f 31/4/3 22/4/3 30/4/3
f 32/3/3 24/3/3 23/3/3
f 32/5/3 23/5/3 31/5/3
f 33/6/3 25/6/3 24/6/3
f 33/3/3 24/3/3 32/3/3
f 33/6/3 26/6/3 25/6/3
f 34/6/3 26/6/3 33/6/3
f 35/6/3 26/6/3 34/6/3
f 36/6/3 26/6/3 35/6/3
f 37/11/3 27/11/3 26/11/3
f 37/6/3 26/6/3 36/6/3
f 38/1/3 32/1/3 31/1/3
f 38/1/3 31/1/3 30/1/3
f 38/4/3 30/4/3 29/4/3
f 39/5/3 33/5/3 32/5/3
f 39/1/3 32/1/3 38/1/3
f 40/6/3 36/6/3 35/6/3
f 40/7/3 35/7/3 34/7/3
f 41/7/3 37/7/3 36/7/3
f 41/6/3 36/6/3 40/6/3
f 42/11/3 27/11/3 37/11/3
f 42/7/3 37/7/3 41/7/3
f 43/10/3 14/10/3 27/10/3
f 43/11/3 27/11/3 42/11/3
f 44/10/3 14/10/3 43/10/3
f 45/3/3 29/3/3 28/3/3
f 45/12/3 28/12/3 9/12/3
f 46/4/3 38/4/3 29/4/3
f 46/3/3 29/3/3 45/3/3
f 47/2/3 39/2/3 38/2/3
f 47/4/3 38/4/3 46/4/3
f 48/5/3 33/5/3 39/5/3
f 48/2/3 39/2/3 47/2/3
f 49/3/3 34/3/3 33/3/3
f 49/5/3 33/5/3 48/5/3
f 50/7/3 40/7/3 34/7/3
f 50/3/3 34/3/3 49/3/3
f 51/8/3 41/8/3 40/8/3
f 51/7/3 40/7/3 50/7/3
f 52/9/3 42/9/3 41/9/3
f 52/8/3 41/8/3 51/8/3
f 53/3/3 47/3/3 46/3/3
f 53/10/3 46/10/3 45/10/3
f 54/4/3 48/4/3 47/4/3
f 54/3/3 47/3/3 53/3/3
f 55/3/3 49/3/3 48/3/3
f 55/4/3 48/4/3 54/4/3
f 56/7/3 50/7/3 49/7/3
f 56/3/3 49/3/3 55/3/3
f 57/8/3 51/8/3 50/8/3
f 57/7/3 50/7/3 56/7/3
f 58/7/3 52/7/3 51/7/3
f 58/8/3 51/8/3 57/8/3
f 59/9/3 42/9/3 52/9/3
f 59/7/3 52/7/3 58/7/3
f 60/3/3 55/3/3 54/3/3
f 60/10/3 54/10/3 53/10/3
f 61/3/3 55/3/3 60/3/3
f 62/6/3 56/6/3 55/6/3
f 62/3/3 55/3/3 61/3/3
f 63/7/3 58/7/3 57/7/3
f 63/7/3 57/7/3 56/7/3
f 64/8/3 59/8/3 58/8/3
f 64/7/3 58/7/3 63/7/3
f 65/9/3 42/9/3 59/9/3
f 65/8/3 59/8/3 64/8/3
f 66/8/3 64/8/3 63/8/3
f 66/7/3 63/7/3 56/7/3
f 67/7/3 65/7/3 64/7/3
f 67/8/3 64/8/3 66/8/3
f 68/9/3 42/9/3 65/9/3
f 68/7/3 65/7/3 67/7/3
f 69/6/3 43/6/3 42/6/3
f 69/9/3 42/9/3 68/9/3
f 70/11/3 44/11/3 43/11/3
f 70/6/3 43/6/3 69/6/3
f 71/10/3 14/10/3 44/10/3
f 71/11/3 44/11/3 70/11/3
f 72/10/3 14/10/3 71/10/3
f 73/10/3 14/10/3 72/10/3
f 74/10/3 14/10/3 73/10/3
f 75/10/3 14/10/3 74/10/3
f 76/10/3 14/10/3 75/10/3
f 77/7/3 67/7/3 66/7/3
f 77/7/3 66/7/3 56/7/3
f 78/8/3 68/8/3 67/8/3
f 78/7/3 67/7/3 77/7/3
f 79/9/3 69/9/3 68/9/3
f 79/8/3 68/8/3 78/8/3
f 80/8/3 70/8/3 69/8/3
f 80/9/3 69/9/3 79/9/3
f 81/6/3 71/6/3 70/6/3
f 81/8/3 70/8/3 80/8/3
f 82/11/3 72/11/3 71/11/3
f 82/6/3 71/6/3 81/6/3
f 83/10/3 73/10/3 72/10/3
f 83/11/3 72/11/3 82/11/3
f 84/3/3 74/3/3 73/3/3
f 84/10/3 73/10/3 83/10/3
f 85/10/3 75/10/3 74/10/3
f 85/3/3 74/3/3 84/3/3
f 86/3/3 76/3/3 75/3/3
f 86/10/3 75/10/3 85/10/3
f 87/10/3 14/10/3 76/10/3
f 87/3/3 76/3/3 86/3/3
f 88/12/3 10/12/3 14/12/3
f 88/10/3 14/10/3 87/10/3
f 89/11/3 61/11/3 60/11/3
f 89/10/3 60/10/3 53/10/3
f 90/6/3 62/6/3 61/6/3
f 90/11/3 61/11/3 89/11/3
f 91/6/3 56/6/3 62/6/3
f 91/6/3 62/6/3 90/6/3
f 92/8/3 78/8/3 77/8/3
f 92/7/3 77/7/3 56/7/3
f 93/7/3 79/7/3 78/7/3
f 93/8/3 78/8/3 92/8/3
f 94/8/3 80/8/3 79/8/3
f 94/7/3 79/7/3 93/7/3
f 95/7/3 81/7/3 80/7/3
f 95/8/3 80/8/3 94/8/3
f 96/8/3 82/8/3 81/8/3
f 96/7/3 81/7/3 95/7/3
f 97/6/3 83/6/3 82/6/3
f 97/8/3 82/8/3 96/8/3
f 98/11/3 84/11/3 83/11/3
f 98/6/3 83/6/3 97/6/3
f 99/5/3 85/5/3 84/5/3
f 99/11/3 84/11/3 98/11/3
f 100/11/3 86/11/3 85/11/3
f 100/5/3 85/5/3 99/5/3
f 101/5/3 87/5/3 86/5/3
f 101/11/3 86/11/3 100/11/3
f 102/11/3 88/11/3 87/11/3
f 102/5/3 87/5/3 101/5/3
f 103/11/3 88/11/3 102/11/3
f 104/10/3 89/10/3 53/10/3
f 104/10/3 53/10/3 45/10/3
f 105/3/3 90/3/3 89/3/3
f 105/10/3 89/10/3 104/10/3
f 105/3/3 91/3/3 90/3/3
f 106/3/3 91/3/3 105/3/3
f 107/6/3 56/6/3 91/6/3
f 107/3/3 91/3/3 106/3/3
f 108/7/3 92/7/3 56/7/3
f 108/6/3 56/6/3 107/6/3
f 108/7/3 93/7/3 92/7/3
f 109/8/3 94/8/3 93/8/3
f 109/7/3 93/7/3 108/7/3
f 110/7/3 95/7/3 94/7/3
f 110/8/3 94/8/3 109/8/3
f 111/8/3 96/8/3 95/8/3
f 111/7/3 95/7/3 110/7/3
f 112/7/3 97/7/3 96/7/3
f 112/8/3 96/8/3 111/8/3
f 113/8/3 98/8/3 97/8/3
f 113/7/3 97/7/3 112/7/3
f 114/7/3 99/7/3 98/7/3
f 114/8/3 98/8/3 113/8/3
f 115/5/3 100/5/3 99/5/3
f 115/7/3 99/7/3 114/7/3
f 116/7/3 101/7/3 100/7/3
f 116/5/3 100/5/3 115/5/3
f 117/5/3 102/5/3 101/5/3
f 117/7/3 101/7/3 116/7/3
f 118/7/3 103/7/3 102/7/3
f 118/5/3 102/5/3 117/5/3
f 119/11/3 88/11/3 103/11/3
f 119/7/3 103/7/3 118/7/3
f 120/10/3 104/10/3 45/10/3
f 120/12/3 45/12/3 9/12/3
f 121/3/3 105/3/3 104/3/3
f 121/10/3 104/10/3 120/10/3
f 122/4/3 106/4/3 105/4/3
f 122/3/3 105/3/3 121/3/3
f 123/5/3 107/5/3 106/5/3
f 123/4/3 106/4/3 122/4/3
f 124/3/3 108/3/3 107/3/3
f 124/5/3 107/5/3 123/5/3
f 125/7/3 109/7/3 108/7/3
f 125/3/3 108/3/3 124/3/3
f 125/7/3 110/7/3 109/7/3
f 126/7/3 110/7/3 125/7/3
f 127/8/3 111/8/3 110/8/3
f 127/7/3 110/7/3 126/7/3
f 128/7/3 112/7/3 111/7/3
f 128/8/3 111/8/3 127/8/3
f 129/8/3 114/8/3 113/8/3
f 129/7/3 112/7/3 128/7/3
f 129/8/3 113/8/3 112/8/3
f 129/8/3 115/8/3 114/8/3
f 130/4/3 116/4/3 115/4/3
f 130/8/3 115/8/3 129/8/3
f 131/8/3 117/8/3 116/8/3
f 131/4/3 116/4/3 130/4/3
f 132/4/3 118/4/3 117/4/3
f 132/8/3 117/8/3 131/8/3
f 133/8/3 119/8/3 118/8/3
f 133/4/3 118/4/3 132/4/3
f 134/11/3 88/11/3 119/11/3
f 134/8/3 119/8/3 133/8/3
f 135/4/3 122/4/3 121/4/3
f 135/1/3 123/1/3 122/1/3
f 135/1/3 124/1/3 123/1/3
f 136/5/3 125/5/3 124/5/3
f 136/1/3 124/1/3 135/1/3
f 137/7/3 128/7/3 127/7/3
f 137/7/3 127/7/3 126/7/3
f 137/4/3 131/4/3 130/4/3
f 137/7/3 130/7/3 129/7/3
f 137/7/3 129/7/3 128/7/3
f 138/7/3 132/7/3 131/7/3
f 138/4/3 131/4/3 137/4/3
f 139/4/3 133/4/3 132/4/3
f 139/7/3 132/7/3 138/7/3
f 140/7/3 134/7/3 133/7/3
f 140/4/3 133/4/3 139/4/3
f 141/3/3 121/3/3 120/3/3
f 141/12/3 120/12/3 9/12/3
f 142/4/3 135/4/3 121/4/3
f 142/3/3 121/3/3 141/3/3
f 143/2/3 136/2/3 135/2/3
f 143/4/3 135/4/3 142/4/3
f 144/5/3 125/5/3 136/5/3
f 144/2/3 136/2/3 143/2/3
f 145/3/3 126/3/3 125/3/3
f 145/5/3 125/5/3 144/5/3
f 146/7/3 138/7/3 137/7/3
f 146/3/3 126/3/3 145/3/3
f 146/7/3 139/7/3 138/7/3
f 146/7/3 137/7/3 126/7/3
f 146/7/3 140/7/3 139/7/3
f 147/7/3 140/7/3 146/7/3
f 148/11/3 88/11/3 134/11/3
f 148/7/3 140/7/3 147/7/3
f 148/7/3 134/7/3 140/7/3
f 149/3/3 143/3/3 142/3/3
f 149/10/3 142/10/3 141/10/3
f 150/4/3 144/4/3 143/4/3
f 150/3/3 143/3/3 149/3/3
f 151/3/3 145/3/3 144/3/3
f 151/4/3 144/4/3 150/4/3
f 152/7/3 147/7/3 146/7/3
f 152/3/3 145/3/3 151/3/3
f 152/7/3 146/7/3 145/7/3
f 153/7/3 147/7/3 152/7/3
f 154/7/3 147/7/3 153/7/3
f 155/6/3 148/6/3 147/6/3
f 155/7/3 147/7/3 154/7/3
f 156/10/3 150/10/3 149/10/3
f 156/3/3 151/3/3 150/3/3
f 157/3/3 151/3/3 156/3/3
f 158/6/3 152/6/3 151/6/3
f 158/3/3 151/3/3 157/3/3
f 158/6/3 153/6/3 152/6/3
f 159/7/3 154/7/3 153/7/3
f 159/6/3 153/6/3 158/6/3
f 160/6/3 155/6/3 154/6/3
f 160/7/3 154/7/3 159/7/3
f 161/6/3 148/6/3 155/6/3
f 161/6/3 155/6/3 160/6/3
f 162/11/3 88/11/3 148/11/3
f 162/6/3 148/6/3 161/6/3
f 163/11/3 157/11/3 156/11/3
f 163/10/3 156/10/3 149/10/3
f 164/6/3 161/6/3 160/6/3
f 164/11/3 157/11/3 163/11/3
f 164/6/3 160/6/3 159/6/3
f 164/6/3 158/6/3 157/6/3
f 164/6/3 159/6/3 158/6/3
f 165/11/3 162/11/3 161/11/3
f 165/6/3 161/6/3 164/6/3
f 166/12/3 10/12/3 88/12/3
f 166/11/3 162/11/3 165/11/3
f 166/11/3 88/11/3 162/11/3
f 167/10/3 163/10/3 149/10/3
f 167/12/3 141/12/3 9/12/3
f 167/10/3 164/10/3 163/10/3
f 167/10/3 149/10/3 141/10/3
f 168/11/3 165/11/3 164/11/3
f 168/10/3 164/10/3 167/10/3
f 169/10/3 166/10/3 165/10/3
f 169/11/3 165/11/3 168/11/3
f 170/12/3 10/12/3 166/12/3
f 170/10/3 166/10/3 169/10/3
f 171/12/3 167/12/3 9/12/3
f 171/12/3 169/12/3 168/12/3
f 171/12/3 170/12/3 169/12/3
f 171/12/3 168/12/3 167/12/3
f 172/12/3 10/12/3 170/12/3
f 172/12/3 170/12/3 171/12/3
f 173/12/4 174/12/4 175/12/4
f 175/12/4 174/12/4 176/12/4
f 176/12/4 174/12/4 177/12/4
f 177/12/4 174/12/4 178/12/4
f 175/10/4 176/10/4 179/10/4
f 176/11/4 177/11/4 180/11/4
f 179/10/4 176/10/4 180/10/4
f 180/11/4 177/11/4 181/11/4
f 177/10/4 178/10/4 182/10/4
f 181/11/4 177/11/4 182/11/4
f 182/10/4 178/10/4 183/10/4
f 175/10/4 179/10/4 184/10/4
f 180/3/4 181/3/4 185/3/4
f 184/10/4 179/10/4 185/10/4
f 179/3/4 180/3/4 185/3/4
f 185/3/4 181/3/4 186/3/4
f 181/6/4 182/6/4 187/6/4
f 186/3/4 181/3/4 187/3/4
f 187/6/4 182/6/4 188/6/4
f 182/11/4 183/11/4 189/11/4
f 188/6/4 182/6/4 189/6/4
f 183/10/4 178/10/4 190/10/4
f 189/11/4 183/11/4 190/11/4
f 190/10/4 178/10/4 191/10/4
f 173/12/4 175/12/4 192/12/4
f 175/10/4 184/10/4 192/10/4
f 184/3/4 185/3/4 193/3/4
f 192/10/4 184/10/4 193/10/4
f 185/4/4 186/4/4 194/4/4
f 193/3/4 185/3/4 194/3/4
f 186/5/4 187/5/4 195/5/4
f 194/4/4 186/4/4 195/4/4
f 187/3/4 188/3/4 196/3/4
f 195/5/4 187/5/4 196/5/4
f 188/6/4 189/6/4 197/6/4
f 196/3/4 188/3/4 197/3/4
f 189/6/4 190/6/4 197/6/4
f 197/6/4 190/6/4 198/6/4
f 198/6/4 190/6/4 199/6/4
f 199/6/4 190/6/4 200/6/4
f 190/11/4 191/11/4 201/11/4
f 200/6/4 190/6/4 201/6/4
f 195/1/4 196/1/4 202/1/4
f 194/1/4 195/1/4 202/1/4
f 193/4/4 194/4/4 202/4/4
f 196/5/4 197/5/4 203/5/4
f 202/1/4 196/1/4 203/1/4
f 199/6/4 200/6/4 204/6/4
f 198/7/4 199/7/4 204/7/4
f 200/7/4 201/7/4 205/7/4
f 204/6/4 200/6/4 205/6/4
f 201/11/4 191/11/4 206/11/4
f 205/7/4 201/7/4 206/7/4
f 191/10/4 178/10/4 207/10/4
f 206/11/4 191/11/4 207/11/4
f 207/10/4 178/10/4 208/10/4
f 192/3/4 193/3/4 209/3/4
f 173/12/4 192/12/4 209/12/4
f 193/4/4 202/4/4 210/4/4
f 209/3/4 193/3/4 210/3/4
f 202/2/4 203/2/4 211/2/4
f 210/4/4 202/4/4 211/4/4
f 203/5/4 197/5/4 212/5/4
f 211/2/4 203/2/4 212/2/4
f 197/3/4 198/3/4 213/3/4
f 212/5/4 197/5/4 213/5/4
f 198/7/4 204/7/4 214/7/4
f 213/3/4 198/3/4 214/3/4
f 204/8/4 205/8/4 215/8/4
f 214/7/4 204/7/4 215/7/4
f 205/9/4 206/9/4 216/9/4
f 215/8/4 205/8/4 216/8/4
f 210/3/4 211/3/4 217/3/4
f 209/10/4 210/10/4 217/10/4
f 211/4/4 212/4/4 218/4/4
f 217/3/4 211/3/4 218/3/4
f 212/3/4 213/3/4 219/3/4
f 218/4/4 212/4/4 219/4/4
f 213/7/4 214/7/4 220/7/4
f 219/3/4 213/3/4 220/3/4
f 214/8/4 215/8/4 221/8/4
f 220/7/4 214/7/4 221/7/4
f 215/7/4 216/7/4 222/7/4
f 221/8/4 215/8/4 222/8/4
f 216/9/4 206/9/4 223/9/4
f 222/7/4 216/7/4 223/7/4
f 218/3/4 219/3/4 224/3/4
f 217/10/4 218/10/4 224/10/4
f 224/3/4 219/3/4 225/3/4
f 219/6/4 220/6/4 226/6/4
f 225/3/4 219/3/4 226/3/4
f 221/7/4 222/7/4 227/7/4
f 220/7/4 221/7/4 227/7/4
f 222/8/4 223/8/4 228/8/4
f 227/7/4 222/7/4 228/7/4
f 223/9/4 206/9/4 229/9/4
f 228/8/4 223/8/4 229/8/4
f 227/8/4 228/8/4 230/8/4
f 220/7/4 227/7/4 230/7/4
f 228/7/4 229/7/4 231/7/4
f 230/8/4 228/8/4 231/8/4
f 229/9/4 206/9/4 232/9/4
f 231/7/4 229/7/4 232/7/4
f 206/6/4 207/6/4 233/6/4
f 232/9/4 206/9/4 233/9/4
f 207/11/4 208/11/4 234/11/4
f 233/6/4 207/6/4 234/6/4
f 208/10/4 178/10/4 235/10/4
f 234/11/4 208/11/4 235/11/4
f 235/10/4 178/10/4 236/10/4
f 236/10/4 178/10/4 237/10/4
f 237/10/4 178/10/4 238/10/4
f 238/10/4 178/10/4 239/10/4
f 239/10/4 178/10/4 240/10/4
f 230/7/4 231/7/4 241/7/4
f 220/7/4 230/7/4 241/7/4
f 231/8/4 232/8/4 242/8/4
f 241/7/4 231/7/4 242/7/4
f 232/9/4 233/9/4 243/9/4
f 242/8/4 232/8/4 243/8/4
f 233/8/4 234/8/4 244/8/4
f 243/9/4 233/9/4 244/9/4
f 234/6/4 235/6/4 245/6/4
f 244/8/4 234/8/4 245/8/4
f 235/11/4 236/11/4 246/11/4
f 245/6/4 235/6/4 246/6/4
f 236/10/4 237/10/4 247/10/4
f 246/11/4 236/11/4 247/11/4
f 237/3/4 238/3/4 248/3/4
f 247/10/4 237/10/4 248/10/4
f 238/10/4 239/10/4 249/10/4
f 248/3/4 238/3/4 249/3/4
f 239/3/4 240/3/4 250/3/4
f 249/10/4 239/10/4 250/10/4
f 240/10/4 178/10/4 251/10/4
f 250/3/4 240/3/4 251/3/4
f 178/12/4 174/12/4 252/12/4
f 251/10/4 178/10/4 252/10/4
f 224/11/4 225/11/4 253/11/4
f 217/10/4 224/10/4 253/10/4
f 225/6/4 226/6/4 254/6/4
f 253/11/4 225/11/4 254/11/4
f 226/6/4 220/6/4 255/6/4
f 254/6/4 226/6/4 255/6/4
f 241/8/4 242/8/4 256/8/4
f 220/7/4 241/7/4 256/7/4
f 242/7/4 243/7/4 257/7/4
f 256/8/4 242/8/4 257/8/4
f 243/8/4 244/8/4 258/8/4
f 257/7/4 243/7/4 258/7/4
f 244/7/4 245/7/4 259/7/4
f 258/8/4 244/8/4 259/8/4
f 245/8/4 246/8/4 260/8/4
f 259/7/4 245/7/4 260/7/4
f 246/6/4 247/6/4 261/6/4
f 260/8/4 246/8/4 261/8/4
f 247/11/4 248/11/4 262/11/4
f 261/6/4 247/6/4 262/6/4
f 248/5/4 249/5/4 263/5/4
f 262/11/4 248/11/4 263/11/4
f 249/11/4 250/11/4 264/11/4
f 263/5/4 249/5/4 264/5/4
f 250/5/4 251/5/4 265/5/4
f 264/11/4 250/11/4 265/11/4
f 251/11/4 252/11/4 266/11/4
f 265/5/4 251/5/4 266/5/4
f 266/11/4 252/11/4 267/11/4
f 217/10/4 253/10/4 268/10/4
f 209/10/4 217/10/4 268/10/4
f 253/3/4 254/3/4 269/3/4
f 268/10/4 253/10/4 269/10/4
f 254/3/4 255/3/4 269/3/4
f 269/3/4 255/3/4 270/3/4
f 255/6/4 220/6/4 271/6/4
f 270/3/4 255/3/4 271/3/4
f 220/7/4 256/7/4 272/7/4
f 271/6/4 220/6/4 272/6/4
f 256/7/4 257/7/4 272/7/4
f 257/8/4 258/8/4 273/8/4
f 272/7/4 257/7/4 273/7/4
f 258/7/4 259/7/4 274/7/4
f 273/8/4 258/8/4 274/8/4
f 259/8/4 260/8/4 275/8/4
f 274/7/4 259/7/4 275/7/4
f 260/7/4 261/7/4 276/7/4
f 275/8/4 260/8/4 276/8/4
f 261/8/4 262/8/4 277/8/4
f 276/7/4 261/7/4 277/7/4
f 262/7/4 263/7/4 278/7/4
f 277/8/4 262/8/4 278/8/4
f 263/5/4 264/5/4 279/5/4
f 278/7/4 263/7/4 279/7/4
f 264/7/4 265/7/4 280/7/4
f 279/5/4 264/5/4 280/5/4
f 265/5/4 266/5/4 281/5/4
f 280/7/4 265/7/4 281/7/4
f 266/7/4 267/7/4 282/7/4
f 281/5/4 266/5/4 282/5/4
f 267/11/4 252/11/4 283/11/4
f 282/7/4 267/7/4 283/7/4
f 209/10/4 268/10/4 284/10/4
f 173/12/4 209/12/4 284/12/4
f 268/3/4 269/3/4 285/3/4
f 284/10/4 268/10/4 285/10/4
f 269/4/4 270/4/4 286/4/4
f 285/3/4 269/3/4 286/3/4
f 270/5/4 271/5/4 287/5/4
f 286/4/4 270/4/4 287/4/4
f 271/3/4 272/3/4 288/3/4
f 287/5/4 271/5/4 288/5/4
f 272/7/4 273/7/4 289/7/4
f 288/3/4 272/3/4 289/3/4
f 273/7/4 274/7/4 289/7/4
f 289/7/4 274/7/4 290/7/4
f 274/8/4 275/8/4 291/8/4
f 290/7/4 274/7/4 291/7/4
f 275/7/4 276/7/4 292/7/4
f 291/8/4 275/8/4 292/8/4
f 277/8/4 278/8/4 293/8/4
f 292/7/4 276/7/4 293/7/4
f 276/8/4 277/8/4 293/8/4
f 278/8/4 279/8/4 293/8/4
f 279/4/4 280/4/4 294/4/4
f 293/8/4 279/8/4 294/8/4
f 280/8/4 281/8/4 295/8/4
f 294/4/4 280/4/4 295/4/4
f 281/4/4 282/4/4 296/4/4
f 295/8/4 281/8/4 296/8/4
f 282/8/4 283/8/4 297/8/4
f 296/4/4 282/4/4 297/4/4
f 283/11/4 252/11/4 298/11/4
f 297/8/4 283/8/4 298/8/4
f 285/4/4 286/4/4 299/4/4
f 286/1/4 287/1/4 299/1/4
f 287/1/4 288/1/4 299/1/4
f 288/5/4 289/5/4 300/5/4
f 299/1/4 288/1/4 300/1/4
f 291/7/4 292/7/4 301/7/4
f 290/7/4 291/7/4 301/7/4
f 294/4/4 295/4/4 301/4/4
f 293/7/4 294/7/4 301/7/4
f 292/7/4 293/7/4 301/7/4
f 295/7/4 296/7/4 302/7/4
f 301/4/4 295/4/4 302/4/4
f 296/4/4 297/4/4 303/4/4
f 302/7/4 296/7/4 303/7/4
f 297/7/4 298/7/4 304/7/4
f 303/4/4 297/4/4 304/4/4
f 284/3/4 285/3/4 305/3/4
f 173/12/4 284/12/4 305/12/4
f 285/4/4 299/4/4 306/4/4
f 305/3/4 285/3/4 306/3/4
f 299/2/4 300/2/4 307/2/4
f 306/4/4 299/4/4 307/4/4
f 300/5/4 289/5/4 308/5/4
f 307/2/4 300/2/4 308/2/4
f 289/3/4 290/3/4 309/3/4
f 308/5/4 289/5/4 309/5/4
f 301/7/4 302/7/4 310/7/4
f 309/3/4 290/3/4 310/3/4
f 302/7/4 303/7/4 310/7/4
f 290/7/4 301/7/4 310/7/4
f 303/7/4 304/7/4 310/7/4
f 310/7/4 304/7/4 311/7/4
f 298/11/4 252/11/4 312/11/4
f 311/7/4 304/7/4 312/7/4
f 304/7/4 298/7/4 312/7/4
f 306/3/4 307/3/4 313/3/4
f 305/10/4 306/10/4 313/10/4
f 307/4/4 308/4/4 314/4/4
f 313/3/4 307/3/4 314/3/4
f 308/3/4 309/3/4 315/3/4
f 314/4/4 308/4/4 315/4/4
f 310/7/4 311/7/4 316/7/4
f 315/3/4 309/3/4 316/3/4
f 309/7/4 310/7/4 316/7/4
f 316/7/4 311/7/4 317/7/4
f 317/7/4 311/7/4 318/7/4
f 311/6/4 312/6/4 319/6/4
f 318/7/4 311/7/4 319/7/4
f 313/10/4 314/10/4 320/10/4
f 314/3/4 315/3/4 320/3/4
f 320/3/4 315/3/4 321/3/4
f 315/6/4 316/6/4 322/6/4
f 321/3/4 315/3/4 322/3/4
f 316/6/4 317/6/4 322/6/4
f 317/7/4 318/7/4 323/7/4
f 322/6/4 317/6/4 323/6/4
f 318/6/4 319/6/4 324/6/4
f 323/7/4 318/7/4 324/7/4
f 319/6/4 312/6/4 325/6/4
f 324/6/4 319/6/4 325/6/4
f 312/11/4 252/11/4 326/11/4
f 325/6/4 312/6/4 326/6/4
f 320/11/4 321/11/4 327/11/4
f 313/10/4 320/10/4 327/10/4
f 324/6/4 325/6/4 328/6/4
f 327/11/4 321/11/4 328/11/4
f 323/6/4 324/6/4 328/6/4
f 321/6/4 322/6/4 328/6/4
f 322/6/4 323/6/4 328/6/4
f 325/11/4 326/11/4 329/11/4
f 328/6/4 325/6/4 329/6/4
f 252/12/4 174/12/4 330/12/4
f 329/11/4 326/11/4 330/11/4
f 326/11/4 252/11/4 330/11/4
f 313/10/4 327/10/4 331/10/4
f 173/12/4 305/12/4 331/12/4
f 327/10/4 328/10/4 331/10/4
f 305/10/4 313/10/4 331/10/4
f 328/11/4 329/11/4 332/11/4
f 331/10/4 328/10/4 332/10/4
f 329/10/4 330/10/4 333/10/4
f 332/11/4 329/11/4 333/11/4
f 330/12/4 174/12/4 334/12/4
f 333/10/4 330/10/4 334/10/4
f 173/12/4 331/12/4 335/12/4
f 332/12/4 333/12/4 335/12/4
f 333/12/4 334/12/4 335/12/4
f 331/12/4 332/12/4 335/12/4
f 334/12/4 174/12/4 336/12/4
f 335/12/4 334/12/4 336/12/4
f 339/12/5 338/12/5 337/12/5
f 340/12/5 338/12/5 339/12/5
f 341/12/6 342/12/6 343/12/6
f 343/12/6 342/12/6 344/12/6
