# MagicaVoxel @ Ephtracy

# material
mtllib wall_side.mtl
usemtl palette

# normals
vn -1 0 0
vn 1 0 0
vn 0 0 1
vn 0 0 -1
vn 0 -1 0
vn 0 1 0

# texcoords
vt 0.0722656 0.5
vt 0.0761719 0.5
vt 0.0800781 0.5
vt 0.142578 0.5

# verts
v -10 0 10.5
v -10 0 -10.5
v -10 1 10.5
v -10 1 -10.5
v -10 4 10.5
v -10 4 9.5
v -10 4 4.5
v -10 4 -0.5
v -10 4 -5.5
v -10 4 -10.5
v -10 5 9.5
v -10 5 4.5
v -10 5 -0.5
v -10 5 -5.5
v -10 9 10.5
v -10 9 9.5
v -10 9 4.5
v -10 9 -0.5
v -10 9 -5.5
v -10 9 -10.5
v -10 10 9.5
v -10 10 4.5
v -10 10 -0.5
v -10 10 -5.5
v -10 12 10.5
v -10 12 9.5
v -10 12 4.5
v -10 12 -0.5
v -10 12 -5.5
v -10 12 -10.5
v -10 13 10.5
v -10 13 9.5
v -10 13 4.5
v -10 13 -0.5
v -10 13 -5.5
v -10 13 -10.5
v -10 14 9.5
v -10 14 4.5
v -10 14 -0.5
v -10 14 -5.5
v -10 18 10.5
v -10 18 -10.5
v -8 18 -5.5
v -8 18 -8.5
v -8 19 -5.5
v -8 19 -8.5
v -7 18 -8.5
v -7 18 -9.5
v -7 19 -8.5
v -7 19 -9.5
v -4 18 4.5
v -4 18 3.5
v -4 19 4.5
v -4 19 3.5
v -3 18 5.5
v -3 18 4.5
v -3 18 3.5
v -3 18 2.5
v -3 19 5.5
v -3 19 4.5
v -3 19 3.5
v -3 19 2.5
v 2 18 1.5
v 2 18 0.5
v 2 19 1.5
v 2 19 0.5
v 3 18 3.5
v 3 18 1.5
v 3 18 0.5
v 3 18 -1.5
v 3 19 3.5
v 3 19 1.5
v 3 19 0.5
v 3 19 -1.5
v 4 18 4.5
v 4 18 3.5
v 4 18 -1.5
v 4 18 -2.5
v 4 19 4.5
v 4 19 3.5
v 4 19 1.5
v 4 19 0.5
v 4 19 -1.5
v 4 19 -2.5
v 4 20 1.5
v 4 20 0.5
v 5 18 -2.5
v 5 18 -3.5
v 5 19 0.5
v 5 19 -1.5
v 5 19 -2.5
v 5 19 -3.5
v 5 20 0.5
v 5 20 -1.5
v 6 18 -3.5
v 6 18 -4.5
v 6 19 -1.5
v 6 19 -2.5
v 6 19 -3.5
v 6 19 -4.5
v 6 20 -1.5
v 6 20 -2.5
v -6 18 -5.5
v -6 18 -6.5
v -6 19 -5.5
v -6 19 -6.5
v -5 18 -6.5
v -5 18 -9.5
v -5 19 -6.5
v -5 19 -9.5
v -2 18 5.5
v -2 18 2.5
v -2 19 5.5
v -2 19 2.5
v 5 18 4.5
v 5 18 3.5
v 5 19 4.5
v 5 19 3.5
v 7 18 -3.5
v 7 18 -4.5
v 7 19 -3.5
v 7 19 -4.5
v 8 18 3.5
v 8 18 2.5
v 8 18 -2.5
v 8 18 -3.5
v 8 19 3.5
v 8 19 2.5
v 8 19 1.5
v 8 19 -0.5
v 8 19 -1.5
v 8 19 -2.5
v 8 19 -3.5
v 8 20 1.5
v 8 20 -0.5
v 8 20 -1.5
v 8 20 -2.5
v 9 18 2.5
v 9 18 -2.5
v 9 19 2.5
v 9 19 -0.5
v 9 19 -1.5
v 9 19 -2.5
v 9 20 -0.5
v 9 20 -1.5
v 10 0 10.5
v 10 0 -10.5
v 10 1 10.5
v 10 1 -10.5
v 10 4 10.5
v 10 4 5.5
v 10 4 0.5
v 10 4 -4.5
v 10 4 -9.5
v 10 4 -10.5
v 10 5 5.5
v 10 5 0.5
v 10 5 -4.5
v 10 5 -9.5
v 10 9 10.5
v 10 9 5.5
v 10 9 0.5
v 10 9 -4.5
v 10 9 -9.5
v 10 9 -10.5
v 10 10 5.5
v 10 10 0.5
v 10 10 -4.5
v 10 10 -9.5
v 10 12 10.5
v 10 12 5.5
v 10 12 0.5
v 10 12 -4.5
v 10 12 -9.5
v 10 12 -10.5
v 10 13 10.5
v 10 13 5.5
v 10 13 0.5
v 10 13 -4.5
v 10 13 -9.5
v 10 13 -10.5
v 10 14 5.5
v 10 14 0.5
v 10 14 -4.5
v 10 14 -9.5
v 10 18 10.5
v 10 18 -10.5
v -10 0 10.5
v -10 1 10.5
v -10 4 10.5
v -10 9 10.5
v -10 12 10.5
v -10 13 10.5
v -10 18 10.5
v -5 4 10.5
v -5 5 10.5
v -5 9 10.5
v -5 10 10.5
v -5 12 10.5
v -5 13 10.5
v -5 14 10.5
v 0 4 10.5
v 0 5 10.5
v 0 9 10.5
v 0 10 10.5
v 0 12 10.5
v 0 13 10.5
v 0 14 10.5
v 5 4 10.5
v 5 5 10.5
v 5 9 10.5
v 5 10 10.5
v 5 12 10.5
v 5 13 10.5
v 5 14 10.5
v 9 4 10.5
v 9 5 10.5
v 9 9 10.5
v 9 10 10.5
v 9 12 10.5
v 9 13 10.5
v 9 14 10.5
v 10 0 10.5
v 10 1 10.5
v 10 4 10.5
v 10 9 10.5
v 10 12 10.5
v 10 13 10.5
v 10 18 10.5
v -3 18 5.5
v -3 19 5.5
v -2 18 5.5
v -2 19 5.5
v -4 18 4.5
v -4 19 4.5
v -3 18 4.5
v -3 19 4.5
v 4 18 4.5
v 4 19 4.5
v 5 18 4.5
v 5 19 4.5
v 3 18 3.5
v 3 19 3.5
v 4 18 3.5
v 4 19 3.5
v 5 18 3.5
v 5 19 3.5
v 8 18 3.5
v 8 19 3.5
v 8 18 2.5
v 8 19 2.5
v 9 18 2.5
v 9 19 2.5
v 2 18 1.5
v 2 19 1.5
v 3 18 1.5
v 3 19 1.5
v 4 19 1.5
v 4 20 1.5
v 8 19 1.5
v 8 20 1.5
v 8 19 -0.5
v 8 20 -0.5
v 9 19 -0.5
v 9 20 -0.5
v -8 18 -5.5
v -8 19 -5.5
v -6 18 -5.5
v -6 19 -5.5
v -6 18 -6.5
v -6 19 -6.5
v -5 18 -6.5
v -5 19 -6.5
v -4 18 3.5
v -4 19 3.5
v -3 18 3.5
v -3 19 3.5
v -3 18 2.5
v -3 19 2.5
v -2 18 2.5
v -2 19 2.5
v 2 18 0.5
v 2 19 0.5
v 3 18 0.5
v 3 19 0.5
v 4 19 0.5
v 4 20 0.5
v 5 19 0.5
v 5 20 0.5
v 3 18 -1.5
v 3 19 -1.5
v 4 18 -1.5
v 4 19 -1.5
v 5 19 -1.5
v 5 20 -1.5
v 6 19 -1.5
v 6 20 -1.5
v 8 19 -1.5
v 8 20 -1.5
v 9 19 -1.5
v 9 20 -1.5
v 4 18 -2.5
v 4 19 -2.5
v 5 18 -2.5
v 5 19 -2.5
v 6 19 -2.5
v 6 20 -2.5
v 8 18 -2.5
v 8 19 -2.5
v 8 20 -2.5
v 9 18 -2.5
v 9 19 -2.5
v 5 18 -3.5
v 5 19 -3.5
v 6 18 -3.5
v 6 19 -3.5
v 7 18 -3.5
v 7 19 -3.5
v 8 18 -3.5
v 8 19 -3.5
v 6 18 -4.5
v 6 19 -4.5
v 7 18 -4.5
v 7 19 -4.5
v -8 18 -8.5
v -8 19 -8.5
v -7 18 -8.5
v -7 19 -8.5
v -7 18 -9.5
v -7 19 -9.5
v -5 18 -9.5
v -5 19 -9.5
v -10 0 -10.5
v -10 1 -10.5
v -10 4 -10.5
v -10 9 -10.5
v -10 12 -10.5
v -10 13 -10.5
v -10 18 -10.5
v -9 4 -10.5
v -9 5 -10.5
v -9 9 -10.5
v -9 10 -10.5
v -9 12 -10.5
v -9 13 -10.5
v -9 14 -10.5
v -5 4 -10.5
v -5 5 -10.5
v -5 9 -10.5
v -5 10 -10.5
v -5 12 -10.5
v -5 13 -10.5
v -5 14 -10.5
v 0 4 -10.5
v 0 5 -10.5
v 0 9 -10.5
v 0 10 -10.5
v 0 12 -10.5
v 0 13 -10.5
v 0 14 -10.5
v 5 4 -10.5
v 5 5 -10.5
v 5 9 -10.5
v 5 10 -10.5
v 5 12 -10.5
v 5 13 -10.5
v 5 14 -10.5
v 10 0 -10.5
v 10 1 -10.5
v 10 4 -10.5
v 10 9 -10.5
v 10 12 -10.5
v 10 13 -10.5
v 10 18 -10.5
v -10 0 10.5
v 10 0 10.5
v -10 0 -10.5
v 10 0 -10.5
v -10 18 10.5
v 10 18 10.5
v -3 18 5.5
v -2 18 5.5
v -4 18 4.5
v -3 18 4.5
v 4 18 4.5
v 5 18 4.5
v -4 18 3.5
v -3 18 3.5
v 3 18 3.5
v 4 18 3.5
v 5 18 3.5
v 8 18 3.5
v -3 18 2.5
v -2 18 2.5
v 8 18 2.5
v 9 18 2.5
v 2 18 1.5
v 3 18 1.5
v 2 18 0.5
v 3 18 0.5
v 3 18 -1.5
v 4 18 -1.5
v 4 18 -2.5
v 5 18 -2.5
v 8 18 -2.5
v 9 18 -2.5
v 5 18 -3.5
v 6 18 -3.5
v 7 18 -3.5
v 8 18 -3.5
v 6 18 -4.5
v 7 18 -4.5
v -8 18 -5.5
v -6 18 -5.5
v -6 18 -6.5
v -5 18 -6.5
v -8 18 -8.5
v -7 18 -8.5
v -7 18 -9.5
v -5 18 -9.5
v -10 18 -10.5
v 10 18 -10.5
v -3 19 5.5
v -2 19 5.5
v -4 19 4.5
v -3 19 4.5
v 4 19 4.5
v 5 19 4.5
v -4 19 3.5
v -3 19 3.5
v 3 19 3.5
v 4 19 3.5
v 5 19 3.5
v 8 19 3.5
v -3 19 2.5
v -2 19 2.5
v 8 19 2.5
v 9 19 2.5
v 2 19 1.5
v 3 19 1.5
v 4 19 1.5
v 8 19 1.5
v 2 19 0.5
v 3 19 0.5
v 4 19 0.5
v 5 19 0.5
v 8 19 -0.5
v 9 19 -0.5
v 3 19 -1.5
v 4 19 -1.5
v 5 19 -1.5
v 6 19 -1.5
v 8 19 -1.5
v 9 19 -1.5
v 4 19 -2.5
v 5 19 -2.5
v 6 19 -2.5
v 8 19 -2.5
v 9 19 -2.5
v 5 19 -3.5
v 6 19 -3.5
v 7 19 -3.5
v 8 19 -3.5
v 6 19 -4.5
v 7 19 -4.5
v -8 19 -5.5
v -6 19 -5.5
v -6 19 -6.5
v -5 19 -6.5
v -8 19 -8.5
v -7 19 -8.5
v -7 19 -9.5
v -5 19 -9.5
v 4 20 1.5
v 8 20 1.5
v 4 20 0.5
v 5 20 0.5
v 8 20 -0.5
v 9 20 -0.5
v 5 20 -1.5
v 6 20 -1.5
v 8 20 -1.5
v 9 20 -1.5
v 6 20 -2.5
v 8 20 -2.5

# faces
f 3/1/1 2/1/1 1/1/1
f 4/1/1 2/1/1 3/1/1
f 5/2/1 4/2/1 3/2/1
f 6/2/1 4/2/1 5/2/1
f 7/2/1 4/2/1 6/2/1
f 8/2/1 4/2/1 7/2/1
f 9/2/1 4/2/1 8/2/1
f 10/2/1 4/2/1 9/2/1
f 11/3/1 6/3/1 5/3/1
f 11/2/1 7/2/1 6/2/1
f 12/3/1 8/3/1 7/3/1
f 12/2/1 7/2/1 11/2/1
f 13/2/1 9/2/1 8/2/1
f 13/3/1 8/3/1 12/3/1
f 14/3/1 10/3/1 9/3/1
f 14/2/1 9/2/1 13/2/1
f 15/3/1 13/3/1 12/3/1
f 15/3/1 11/3/1 5/3/1
f 15/3/1 14/3/1 13/3/1
f 15/3/1 12/3/1 11/3/1
f 16/3/1 14/3/1 15/3/1
f 17/3/1 14/3/1 16/3/1
f 18/3/1 14/3/1 17/3/1
f 19/3/1 10/3/1 14/3/1
f 19/3/1 14/3/1 18/3/1
f 20/3/1 10/3/1 19/3/1
f 21/2/1 16/2/1 15/2/1
f 21/3/1 17/3/1 16/3/1
f 22/2/1 18/2/1 17/2/1
f 22/3/1 17/3/1 21/3/1
f 23/3/1 19/3/1 18/3/1
f 23/2/1 18/2/1 22/2/1
f 24/2/1 20/2/1 19/2/1
f 24/3/1 19/3/1 23/3/1
f 25/2/1 21/2/1 15/2/1
f 25/2/1 23/2/1 22/2/1
f 25/2/1 24/2/1 23/2/1
f 25/2/1 22/2/1 21/2/1
f 26/2/1 24/2/1 25/2/1
f 27/2/1 24/2/1 26/2/1
f 28/2/1 24/2/1 27/2/1
f 29/2/1 20/2/1 24/2/1
f 29/2/1 24/2/1 28/2/1
f 30/2/1 20/2/1 29/2/1
f 31/1/1 26/1/1 25/1/1
f 32/2/1 27/2/1 26/2/1
f 32/1/1 26/1/1 31/1/1
f 33/1/1 28/1/1 27/1/1
f 33/2/1 27/2/1 32/2/1
f 34/2/1 29/2/1 28/2/1
f 34/1/1 28/1/1 33/1/1
f 35/1/1 30/1/1 29/1/1
f 35/2/1 29/2/1 34/2/1
f 36/1/1 30/1/1 35/1/1
f 37/4/1 32/4/1 31/4/1
f 37/1/1 33/1/1 32/1/1
f 38/4/1 34/4/1 33/4/1
f 38/1/1 33/1/1 37/1/1
f 39/1/1 35/1/1 34/1/1
f 39/4/1 34/4/1 38/4/1
f 40/4/1 36/4/1 35/4/1
f 40/1/1 35/1/1 39/1/1
f 41/4/1 39/4/1 38/4/1
f 41/4/1 37/4/1 31/4/1
f 41/4/1 40/4/1 39/4/1
f 41/4/1 38/4/1 37/4/1
f 42/4/1 36/4/1 40/4/1
f 42/4/1 40/4/1 41/4/1
f 45/4/1 44/4/1 43/4/1
f 46/4/1 44/4/1 45/4/1
f 49/4/1 48/4/1 47/4/1
f 50/4/1 48/4/1 49/4/1
f 53/4/1 52/4/1 51/4/1
f 54/4/1 52/4/1 53/4/1
f 59/4/1 56/4/1 55/4/1
f 60/4/1 56/4/1 59/4/1
f 61/4/1 58/4/1 57/4/1
f 62/4/1 58/4/1 61/4/1
f 65/4/1 64/4/1 63/4/1
f 66/4/1 64/4/1 65/4/1
f 71/4/1 68/4/1 67/4/1
f 72/4/1 68/4/1 71/4/1
f 73/4/1 70/4/1 69/4/1
f 74/4/1 70/4/1 73/4/1
f 79/4/1 76/4/1 75/4/1
f 80/4/1 76/4/1 79/4/1
f 83/4/1 78/4/1 77/4/1
f 84/4/1 78/4/1 83/4/1
f 85/4/1 82/4/1 81/4/1
f 86/4/1 82/4/1 85/4/1
f 91/4/1 88/4/1 87/4/1
f 92/4/1 88/4/1 91/4/1
f 93/4/1 90/4/1 89/4/1
f 94/4/1 90/4/1 93/4/1
f 99/4/1 96/4/1 95/4/1
f 100/4/1 96/4/1 99/4/1
f 101/4/1 98/4/1 97/4/1
f 102/4/1 98/4/1 101/4/1
f 103/4/2 104/4/2 105/4/2
f 105/4/2 104/4/2 106/4/2
f 107/4/2 108/4/2 109/4/2
f 109/4/2 108/4/2 110/4/2
f 111/4/2 112/4/2 113/4/2
f 113/4/2 112/4/2 114/4/2
f 115/4/2 116/4/2 117/4/2
f 117/4/2 116/4/2 118/4/2
f 119/4/2 120/4/2 121/4/2
f 121/4/2 120/4/2 122/4/2
f 123/4/2 124/4/2 127/4/2
f 127/4/2 124/4/2 128/4/2
f 125/4/2 126/4/2 132/4/2
f 132/4/2 126/4/2 133/4/2
f 129/4/2 130/4/2 134/4/2
f 134/4/2 130/4/2 135/4/2
f 131/4/2 132/4/2 136/4/2
f 136/4/2 132/4/2 137/4/2
f 138/4/2 139/4/2 140/4/2
f 140/4/2 139/4/2 141/4/2
f 141/4/2 139/4/2 142/4/2
f 142/4/2 139/4/2 143/4/2
f 141/4/2 142/4/2 144/4/2
f 144/4/2 142/4/2 145/4/2
f 146/1/2 147/1/2 148/1/2
f 148/1/2 147/1/2 149/1/2
f 148/2/2 149/2/2 150/2/2
f 150/2/2 149/2/2 151/2/2
f 151/2/2 149/2/2 152/2/2
f 152/2/2 149/2/2 153/2/2
f 153/2/2 149/2/2 154/2/2
f 154/2/2 149/2/2 155/2/2
f 150/3/2 151/3/2 156/3/2
f 151/2/2 152/2/2 156/2/2
f 152/3/2 153/3/2 157/3/2
f 156/2/2 152/2/2 157/2/2
f 153/2/2 154/2/2 158/2/2
f 157/3/2 153/3/2 158/3/2
f 154/3/2 155/3/2 159/3/2
f 158/2/2 154/2/2 159/2/2
f 157/3/2 158/3/2 160/3/2
f 150/3/2 156/3/2 160/3/2
f 158/3/2 159/3/2 160/3/2
f 156/3/2 157/3/2 160/3/2
f 160/3/2 159/3/2 161/3/2
f 161/3/2 159/3/2 162/3/2
f 162/3/2 159/3/2 163/3/2
f 159/3/2 155/3/2 164/3/2
f 163/3/2 159/3/2 164/3/2
f 164/3/2 155/3/2 165/3/2
f 160/2/2 161/2/2 166/2/2
f 161/3/2 162/3/2 166/3/2
f 162/2/2 163/2/2 167/2/2
f 166/3/2 162/3/2 167/3/2
f 163/3/2 164/3/2 168/3/2
f 167/2/2 163/2/2 168/2/2
f 164/2/2 165/2/2 169/2/2
f 168/3/2 164/3/2 169/3/2
f 160/2/2 166/2/2 170/2/2
f 167/2/2 168/2/2 170/2/2
f 168/2/2 169/2/2 170/2/2
f 166/2/2 167/2/2 170/2/2
f 170/2/2 169/2/2 171/2/2
f 171/2/2 169/2/2 172/2/2
f 172/2/2 169/2/2 173/2/2
f 169/2/2 165/2/2 174/2/2
f 173/2/2 169/2/2 174/2/2
f 174/2/2 165/2/2 175/2/2
f 170/1/2 171/1/2 176/1/2
f 171/2/2 172/2/2 177/2/2
f 176/1/2 171/1/2 177/1/2
f 172/1/2 173/1/2 178/1/2
f 177/2/2 172/2/2 178/2/2
f 173/2/2 174/2/2 179/2/2
f 178/1/2 173/1/2 179/1/2
f 174/1/2 175/1/2 180/1/2
f 179/2/2 174/2/2 180/2/2
f 180/1/2 175/1/2 181/1/2
f 176/4/2 177/4/2 182/4/2
f 177/1/2 178/1/2 182/1/2
f 178/4/2 179/4/2 183/4/2
f 182/1/2 178/1/2 183/1/2
f 179/1/2 180/1/2 184/1/2
f 183/4/2 179/4/2 184/4/2
f 180/4/2 181/4/2 185/4/2
f 184/1/2 180/1/2 185/1/2
f 183/4/2 184/4/2 186/4/2
f 176/4/2 182/4/2 186/4/2
f 184/4/2 185/4/2 186/4/2
f 182/4/2 183/4/2 186/4/2
f 185/4/2 181/4/2 187/4/2
f 186/4/2 185/4/2 187/4/2
f 195/2/3 190/2/3 189/2/3
f 195/3/3 191/3/3 190/3/3
f 196/3/3 191/3/3 195/3/3
f 197/2/3 192/2/3 191/2/3
f 197/3/3 191/3/3 196/3/3
f 198/2/3 192/2/3 197/2/3
f 199/1/3 193/1/3 192/1/3
f 199/2/3 192/2/3 198/2/3
f 200/4/3 194/4/3 193/4/3
f 200/1/3 193/1/3 199/1/3
f 201/4/3 194/4/3 200/4/3
f 202/2/3 196/2/3 195/2/3
f 202/2/3 195/2/3 189/2/3
f 203/3/3 198/3/3 197/3/3
f 203/2/3 196/2/3 202/2/3
f 203/3/3 197/3/3 196/3/3
f 204/3/3 198/3/3 203/3/3
f 205/2/3 199/2/3 198/2/3
f 205/3/3 198/3/3 204/3/3
f 205/2/3 200/2/3 199/2/3
f 206/2/3 200/2/3 205/2/3
f 207/1/3 201/1/3 200/1/3
f 207/2/3 200/2/3 206/2/3
f 208/4/3 194/4/3 201/4/3
f 208/1/3 201/1/3 207/1/3
f 209/3/3 204/3/3 203/3/3
f 209/2/3 202/2/3 189/2/3
f 209/3/3 203/3/3 202/3/3
f 210/3/3 204/3/3 209/3/3
f 211/2/3 206/2/3 205/2/3
f 211/3/3 204/3/3 210/3/3
f 211/2/3 205/2/3 204/2/3
f 212/2/3 206/2/3 211/2/3
f 213/1/3 207/1/3 206/1/3
f 213/2/3 206/2/3 212/2/3
f 214/4/3 208/4/3 207/4/3
f 214/1/3 207/1/3 213/1/3
f 215/4/3 194/4/3 208/4/3
f 215/4/3 208/4/3 214/4/3
f 216/2/3 210/2/3 209/2/3
f 216/2/3 209/2/3 189/2/3
f 217/3/3 212/3/3 211/3/3
f 217/2/3 210/2/3 216/2/3
f 217/3/3 211/3/3 210/3/3
f 218/3/3 212/3/3 217/3/3
f 219/2/3 214/2/3 213/2/3
f 219/3/3 212/3/3 218/3/3
f 219/2/3 213/2/3 212/2/3
f 220/2/3 214/2/3 219/2/3
f 221/1/3 215/1/3 214/1/3
f 221/2/3 214/2/3 220/2/3
f 222/4/3 194/4/3 215/4/3
f 222/1/3 215/1/3 221/1/3
f 223/1/3 189/1/3 188/1/3
f 224/2/3 216/2/3 189/2/3
f 224/1/3 189/1/3 223/1/3
f 225/3/3 218/3/3 217/3/3
f 225/2/3 216/2/3 224/2/3
f 225/3/3 217/3/3 216/3/3
f 226/2/3 220/2/3 219/2/3
f 226/3/3 218/3/3 225/3/3
f 226/2/3 219/2/3 218/2/3
f 227/1/3 221/1/3 220/1/3
f 227/2/3 220/2/3 226/2/3
f 228/4/3 222/4/3 221/4/3
f 228/1/3 221/1/3 227/1/3
f 229/4/3 194/4/3 222/4/3
f 229/4/3 222/4/3 228/4/3
f 232/4/3 231/4/3 230/4/3
f 233/4/3 231/4/3 232/4/3
f 236/4/3 235/4/3 234/4/3
f 237/4/3 235/4/3 236/4/3
f 240/4/3 239/4/3 238/4/3
f 241/4/3 239/4/3 240/4/3
f 244/4/3 243/4/3 242/4/3
f 245/4/3 243/4/3 244/4/3
f 248/4/3 247/4/3 246/4/3
f 249/4/3 247/4/3 248/4/3
f 252/4/3 251/4/3 250/4/3
f 253/4/3 251/4/3 252/4/3
f 256/4/3 255/4/3 254/4/3
f 257/4/3 255/4/3 256/4/3
f 260/4/3 259/4/3 258/4/3
f 261/4/3 259/4/3 260/4/3
f 264/4/3 263/4/3 262/4/3
f 265/4/3 263/4/3 264/4/3
f 268/4/3 267/4/3 266/4/3
f 269/4/3 267/4/3 268/4/3
f 272/4/3 271/4/3 270/4/3
f 273/4/3 271/4/3 272/4/3
f 274/4/4 275/4/4 276/4/4
f 276/4/4 275/4/4 277/4/4
f 278/4/4 279/4/4 280/4/4
f 280/4/4 279/4/4 281/4/4
f 282/4/4 283/4/4 284/4/4
f 284/4/4 283/4/4 285/4/4
f 286/4/4 287/4/4 288/4/4
f 288/4/4 287/4/4 289/4/4
f 290/4/4 291/4/4 292/4/4
f 292/4/4 291/4/4 293/4/4
f 294/4/4 295/4/4 296/4/4
f 296/4/4 295/4/4 297/4/4
f 298/4/4 299/4/4 300/4/4
f 300/4/4 299/4/4 301/4/4
f 302/4/4 303/4/4 304/4/4
f 304/4/4 303/4/4 305/4/4
f 306/4/4 307/4/4 309/4/4
f 309/4/4 307/4/4 310/4/4
f 308/4/4 309/4/4 311/4/4
f 311/4/4 309/4/4 312/4/4
f 313/4/4 314/4/4 315/4/4
f 315/4/4 314/4/4 316/4/4
f 317/4/4 318/4/4 319/4/4
f 319/4/4 318/4/4 320/4/4
f 321/4/4 322/4/4 323/4/4
f 323/4/4 322/4/4 324/4/4
f 325/4/4 326/4/4 327/4/4
f 327/4/4 326/4/4 328/4/4
f 329/4/4 330/4/4 331/4/4
f 331/4/4 330/4/4 332/4/4
f 334/2/4 335/2/4 340/2/4
f 335/3/4 336/3/4 340/3/4
f 340/3/4 336/3/4 341/3/4
f 336/2/4 337/2/4 342/2/4
f 341/3/4 336/3/4 342/3/4
f 342/2/4 337/2/4 343/2/4
f 337/1/4 338/1/4 344/1/4
f 343/2/4 337/2/4 344/2/4
f 338/4/4 339/4/4 345/4/4
f 344/1/4 338/1/4 345/1/4
f 345/4/4 339/4/4 346/4/4
f 340/2/4 341/2/4 347/2/4
f 334/2/4 340/2/4 347/2/4
f 342/3/4 343/3/4 348/3/4
f 347/2/4 341/2/4 348/2/4
f 341/3/4 342/3/4 348/3/4
f 348/3/4 343/3/4 349/3/4
f 343/2/4 344/2/4 350/2/4
f 349/3/4 343/3/4 350/3/4
f 344/2/4 345/2/4 350/2/4
f 350/2/4 345/2/4 351/2/4
f 345/1/4 346/1/4 352/1/4
f 351/2/4 345/2/4 352/2/4
f 346/4/4 339/4/4 353/4/4
f 352/1/4 346/1/4 353/1/4
f 348/3/4 349/3/4 354/3/4
f 334/2/4 347/2/4 354/2/4
f 347/3/4 348/3/4 354/3/4
f 354/3/4 349/3/4 355/3/4
f 350/2/4 351/2/4 356/2/4
f 355/3/4 349/3/4 356/3/4
f 349/2/4 350/2/4 356/2/4
f 356/2/4 351/2/4 357/2/4
f 351/1/4 352/1/4 358/1/4
f 357/2/4 351/2/4 358/2/4
f 352/4/4 353/4/4 359/4/4
f 358/1/4 352/1/4 359/1/4
f 353/4/4 339/4/4 360/4/4
f 359/4/4 353/4/4 360/4/4
f 354/2/4 355/2/4 361/2/4
f 334/2/4 354/2/4 361/2/4
f 356/3/4 357/3/4 362/3/4
f 361/2/4 355/2/4 362/2/4
f 355/3/4 356/3/4 362/3/4
f 362/3/4 357/3/4 363/3/4
f 358/2/4 359/2/4 364/2/4
f 363/3/4 357/3/4 364/3/4
f 357/2/4 358/2/4 364/2/4
f 364/2/4 359/2/4 365/2/4
f 359/1/4 360/1/4 366/1/4
f 365/2/4 359/2/4 366/2/4
f 360/4/4 339/4/4 367/4/4
f 366/1/4 360/1/4 367/1/4
f 333/1/4 334/1/4 368/1/4
f 334/2/4 361/2/4 369/2/4
f 368/1/4 334/1/4 369/1/4
f 362/3/4 363/3/4 370/3/4
f 369/2/4 361/2/4 370/2/4
f 361/3/4 362/3/4 370/3/4
f 364/2/4 365/2/4 371/2/4
f 370/3/4 363/3/4 371/3/4
f 363/2/4 364/2/4 371/2/4
f 365/1/4 366/1/4 372/1/4
f 371/2/4 365/2/4 372/2/4
f 366/4/4 367/4/4 373/4/4
f 372/1/4 366/1/4 373/1/4
f 367/4/4 339/4/4 374/4/4
f 373/4/4 367/4/4 374/4/4
f 377/1/5 376/1/5 375/1/5
f 378/1/5 376/1/5 377/1/5
f 379/4/6 380/4/6 381/4/6
f 381/4/6 380/4/6 382/4/6
f 379/4/6 381/4/6 383/4/6
f 383/4/6 381/4/6 384/4/6
f 382/4/6 380/4/6 385/4/6
f 385/4/6 380/4/6 386/4/6
f 379/4/6 383/4/6 387/4/6
f 382/4/6 385/4/6 389/4/6
f 389/4/6 385/4/6 390/4/6
f 386/4/6 380/4/6 391/4/6
f 391/4/6 380/4/6 392/4/6
f 387/4/6 388/4/6 393/4/6
f 382/4/6 389/4/6 394/4/6
f 392/4/6 380/4/6 395/4/6
f 395/4/6 380/4/6 396/4/6
f 393/4/6 394/4/6 397/4/6
f 394/4/6 389/4/6 397/4/6
f 397/4/6 389/4/6 398/4/6
f 393/4/6 397/4/6 399/4/6
f 399/4/6 400/4/6 401/4/6
f 401/4/6 402/4/6 403/4/6
f 396/4/6 380/4/6 406/4/6
f 403/4/6 404/4/6 407/4/6
f 405/4/6 406/4/6 410/4/6
f 407/4/6 408/4/6 411/4/6
f 409/4/6 410/4/6 412/4/6
f 407/4/6 411/4/6 413/4/6
f 411/4/6 412/4/6 413/4/6
f 379/4/6 387/4/6 413/4/6
f 387/4/6 393/4/6 413/4/6
f 399/4/6 401/4/6 413/4/6
f 393/4/6 399/4/6 413/4/6
f 403/4/6 407/4/6 413/4/6
f 401/4/6 403/4/6 413/4/6
f 413/4/6 412/4/6 414/4/6
f 414/4/6 412/4/6 415/4/6
f 415/4/6 412/4/6 416/4/6
f 379/4/6 413/4/6 417/4/6
f 417/4/6 418/4/6 419/4/6
f 416/4/6 412/4/6 420/4/6
f 417/4/6 419/4/6 421/4/6
f 419/4/6 420/4/6 421/4/6
f 379/4/6 417/4/6 421/4/6
f 412/4/6 410/4/6 422/4/6
f 421/4/6 420/4/6 422/4/6
f 410/4/6 406/4/6 422/4/6
f 406/4/6 380/4/6 422/4/6
f 420/4/6 412/4/6 422/4/6
f 423/4/6 424/4/6 426/4/6
f 425/4/6 426/4/6 429/4/6
f 426/4/6 424/4/6 430/4/6
f 429/4/6 426/4/6 430/4/6
f 427/4/6 428/4/6 432/4/6
f 432/4/6 428/4/6 433/4/6
f 430/4/6 424/4/6 435/4/6
f 435/4/6 424/4/6 436/4/6
f 433/4/6 434/4/6 437/4/6
f 432/4/6 433/4/6 437/4/6
f 431/4/6 432/4/6 437/4/6
f 437/4/6 438/4/6 440/4/6
f 431/4/6 437/4/6 440/4/6
f 440/4/6 438/4/6 441/4/6
f 441/4/6 438/4/6 442/4/6
f 439/4/6 440/4/6 443/4/6
f 440/4/6 441/4/6 443/4/6
f 443/4/6 441/4/6 444/4/6
f 444/4/6 441/4/6 445/4/6
f 442/4/6 438/4/6 447/4/6
f 447/4/6 438/4/6 448/4/6
f 445/4/6 446/4/6 449/4/6
f 444/4/6 445/4/6 449/4/6
f 449/4/6 446/4/6 450/4/6
f 450/4/6 446/4/6 451/4/6
f 450/4/6 451/4/6 455/4/6
f 451/4/6 452/4/6 455/4/6
f 455/4/6 452/4/6 456/4/6
f 456/4/6 452/4/6 457/4/6
f 453/4/6 454/4/6 458/4/6
f 458/4/6 454/4/6 459/4/6
f 456/4/6 457/4/6 460/4/6
f 457/4/6 458/4/6 460/4/6
f 460/4/6 458/4/6 461/4/6
f 461/4/6 458/4/6 462/4/6
f 462/4/6 458/4/6 463/4/6
f 461/4/6 462/4/6 464/4/6
f 464/4/6 462/4/6 465/4/6
f 466/4/6 467/4/6 468/4/6
f 466/4/6 468/4/6 470/4/6
f 468/4/6 469/4/6 470/4/6
f 470/4/6 469/4/6 471/4/6
f 471/4/6 469/4/6 472/4/6
f 472/4/6 469/4/6 473/4/6
f 474/4/6 475/4/6 476/4/6
f 476/4/6 475/4/6 477/4/6
f 477/4/6 475/4/6 478/4/6
f 477/4/6 478/4/6 480/4/6
f 478/4/6 479/4/6 480/4/6
f 480/4/6 479/4/6 481/4/6
f 481/4/6 479/4/6 482/4/6
f 482/4/6 479/4/6 483/4/6
f 481/4/6 482/4/6 484/4/6
f 484/4/6 482/4/6 485/4/6
